<?xml version="1.0" standalone="no"?>
<!DOCTYPE svg PUBLIC "-//W3C//DTD SVG 20010904//EN"
 "http://www.w3.org/TR/2001/REC-SVG-20010904/DTD/svg10.dtd">
<svg version="1.0" xmlns="http://www.w3.org/2000/svg"
 width="550.000000pt" height="550.000000pt" viewBox="0 0 550.000000 550.000000"
 preserveAspectRatio="xMidYMid meet">

<g transform="translate(0.000000,550.000000) scale(0.100000,-0.100000)"
fill="#000000" stroke="none">
<path d="M3682 5384 c-23 -16 -105 -132 -136 -192 -9 -18 -39 -54 -65 -81 -70
-70 -93 -137 -96 -271 -2 -77 -10 -131 -29 -200 -18 -64 -26 -120 -26 -172 0
-67 -5 -91 -40 -179 -24 -59 -43 -126 -47 -162 -3 -34 -21 -116 -40 -182 -19
-66 -37 -154 -40 -195 -4 -55 -14 -91 -36 -135 -16 -33 -30 -61 -32 -63 -1 -1
-15 4 -31 12 -16 8 -41 19 -56 25 -16 6 -28 15 -28 20 0 5 -15 19 -34 30 -45
28 -124 29 -158 1 -24 -18 -31 -19 -108 -8 -69 10 -85 10 -107 -2 -41 -23 -64
-62 -72 -121 -4 -30 -11 -60 -15 -67 -10 -17 -74 -7 -133 19 -59 27 -112 24
-158 -7 -32 -22 -42 -24 -65 -14 -18 7 -35 8 -52 1 -28 -11 -88 -78 -88 -99 0
-26 -20 -7 -94 92 -53 71 -77 111 -82 140 -8 50 -24 83 -80 164 -24 35 -44 71
-44 82 0 10 -21 49 -47 87 -28 41 -50 86 -55 113 -11 63 -64 166 -96 188 -15
10 -42 24 -60 30 -20 7 -62 42 -104 87 -38 41 -76 75 -83 75 -24 0 -36 -29
-52 -127 -9 -54 -22 -105 -30 -114 -7 -8 -13 -29 -13 -45 0 -56 57 -215 138
-386 29 -59 58 -122 65 -141 8 -18 66 -125 129 -238 100 -177 168 -317 168
-346 0 -4 13 -51 29 -103 16 -52 34 -120 41 -150 7 -30 28 -84 46 -120 19 -36
42 -99 50 -140 16 -80 91 -248 145 -326 17 -26 72 -92 121 -148 49 -56 111
-134 139 -174 50 -72 51 -75 46 -130 -8 -85 11 -210 39 -261 13 -24 24 -49 24
-56 0 -6 13 -32 30 -56 30 -44 30 -44 30 -191 0 -106 -3 -150 -12 -157 -59
-46 -107 -96 -112 -117 -9 -34 20 -80 62 -100 34 -16 34 -17 30 -71 -5 -59
-24 -86 -88 -120 l-34 -19 -2 -100 c0 -64 -7 -115 -17 -144 -29 -80 -16 -82
36 -7 36 52 86 97 107 97 5 0 10 -20 10 -45 0 -25 4 -45 10 -45 5 0 20 21 31
46 22 47 113 154 131 154 5 0 17 -18 25 -40 19 -47 38 -52 48 -12 11 43 94
212 105 212 6 0 10 -29 10 -66 0 -65 0 -66 25 -60 19 5 28 1 41 -19 18 -27 20
-69 15 -250 -3 -90 15 -182 34 -178 5 1 14 24 20 51 11 47 55 135 74 146 5 3
12 -19 16 -49 4 -38 11 -55 21 -55 8 0 14 6 14 14 0 21 94 160 126 185 28 22
28 22 36 2 8 -22 32 -28 43 -11 22 35 58 -28 85 -147 15 -63 26 -93 36 -93 7
0 26 24 40 53 41 79 103 167 119 167 11 0 15 -13 15 -49 0 -28 4 -52 9 -55 8
-5 59 43 129 123 50 57 78 52 88 -15 3 -24 10 -44 14 -44 5 0 31 29 59 65 68
87 83 86 105 -3 17 -65 36 -66 36 -3 0 37 8 68 30 111 49 96 40 120 -47 135
-22 3 -48 12 -56 18 -21 16 -66 263 -74 397 l-5 105 31 23 c24 18 31 30 31 58
0 37 -36 84 -63 84 -32 0 -36 84 -6 116 18 20 22 38 25 121 7 189 22 271 64
341 21 34 44 86 50 115 7 29 27 75 45 102 18 28 38 67 45 88 9 30 21 42 59 62
26 13 62 40 79 60 29 32 32 42 32 99 0 35 -7 80 -15 99 -19 45 -69 104 -106
123 -16 8 -39 25 -53 39 -29 29 -80 33 -113 10 -20 -14 -21 -13 -28 43 -9 78
-44 177 -104 301 -36 73 -51 117 -51 145 0 23 -5 59 -10 81 -7 32 -5 50 12 95
15 40 22 87 26 170 4 110 6 118 44 191 37 70 41 84 48 190 5 63 13 134 19 159
6 25 10 64 11 88 0 23 9 80 19 125 52 223 51 220 49 494 -3 253 -4 262 -25
290 -12 15 -35 55 -50 88 -51 112 -118 239 -128 242 -6 2 -20 -4 -33 -13z
m115 -293 c23 -11 47 -29 53 -42 l13 -22 -27 21 c-15 11 -52 26 -82 32 -89 19
-178 -1 -250 -56 l-45 -34 15 27 c35 68 86 91 206 92 53 0 87 -5 117 -18z
m-182 -522 c49 -8 49 -8 -17 -5 -41 1 -73 7 -80 15 -11 11 -8 12 17 6 17 -4
53 -11 80 -16z m-2305 -391 c-36 -18 -51 -34 -72 -78 l-27 -55 -1 46 c0 53 16
73 77 95 59 21 72 16 23 -8z m2206 -292 c107 -12 108 -13 69 -24 -55 -16 -111
-14 -169 6 -52 18 -79 48 -33 37 13 -4 73 -12 133 -19z m-2036 -61 c-14 -8
-36 -14 -50 -14 -22 0 -21 2 10 14 47 18 71 18 40 0z m1361 -210 c-42 -19 -52
-19 -27 0 11 8 29 15 40 15 16 -1 12 -5 -13 -15z m-156 -15 l30 -8 -35 0 c-19
0 -46 4 -60 8 -24 8 -24 8 5 8 17 0 44 -4 60 -8z m378 -75 c20 -14 37 -33 37
-41 0 -12 -7 -10 -31 10 -17 14 -37 26 -45 26 -8 0 -14 7 -14 15 0 21 10 19
53 -10z m272 -45 c8 -13 -25 -13 -45 0 -12 8 -9 10 12 10 15 0 30 -4 33 -10z
m-1104 -60 c-35 -17 -66 -29 -68 -26 -10 10 74 56 102 56 26 0 21 -4 -34 -30z
m-103 -15 c-16 -14 -68 -33 -68 -26 0 13 52 41 63 34 5 -3 7 -6 5 -8z m682
-305 c-8 -5 -24 -10 -35 -10 -17 0 -17 2 -5 10 8 5 24 10 35 10 17 0 17 -2 5
-10z m-820 -58 c0 -4 -24 -16 -52 -27 -29 -10 -78 -35 -108 -57 -58 -39 -70
-44 -70 -29 0 22 58 76 105 97 48 23 125 33 125 16z m1240 -191 c63 -7 64 -8
36 -20 -25 -10 -44 -9 -108 4 -43 8 -88 20 -100 25 -23 10 -11 10 172 -9z
m-793 -26 c-38 -19 -76 -40 -85 -47 -11 -8 -10 -4 3 11 21 25 109 71 135 71 8
-1 -16 -16 -53 -35z m1056 22 c45 -20 59 -40 61 -94 l3 -48 -14 47 c-11 36
-22 51 -50 68 -19 11 -38 19 -40 16 -3 -3 0 -19 6 -37 6 -18 10 -44 10 -58
l-2 -26 -4 25 c-2 14 -9 40 -14 58 -9 28 -15 32 -44 32 -18 0 -35 -6 -37 -12
-3 -9 -9 -8 -21 4 -16 15 -15 17 11 26 39 15 98 14 135 -1z m-203 -41 c0 -2
-8 -10 -17 -17 -16 -13 -17 -12 -4 4 13 16 21 21 21 13z m519 -164 c-14 -7
-118 40 -139 63 -19 21 -11 18 61 -18 46 -23 81 -43 78 -45z m234 -72 c28 -33
42 -68 32 -78 -4 -4 -11 1 -17 11 -5 10 -23 33 -39 51 -33 38 -35 46 -15 46 8
0 26 -13 39 -30z m-254 7 c-2 -2 -17 -11 -34 -21 l-30 -17 24 20 c13 12 28 21
34 21 6 0 8 -1 6 -3z m-1692 -22 c57 -17 103 -55 48 -40 -16 4 -66 11 -110 14
-78 6 -100 19 -53 33 38 10 62 9 115 -7z m1248 -329 c19 -8 35 -19 35 -23 -1
-57 -68 -233 -89 -233 -5 0 -12 15 -15 33 -4 17 -24 70 -46 117 l-39 85 21 18
c25 21 86 22 133 3z m-710 -7 c26 -7 25 -8 -10 -4 -105 12 -162 -31 -217 -160
-14 -34 -17 -36 -17 -15 -1 26 28 92 51 121 7 9 31 28 52 43 40 27 83 32 141
15z m523 -35 c4 -40 -22 -104 -41 -104 -18 0 -77 65 -77 85 0 8 6 15 14 15 8
0 24 9 37 20 35 29 63 22 67 -16z m-418 -44 c18 -11 20 -84 2 -102 -10 -10
-19 -5 -47 22 -18 19 -37 47 -40 63 -7 26 -6 27 31 27 22 0 46 -5 54 -10z
m260 -18 c0 -16 -6 -37 -14 -47 -13 -18 -14 -17 -40 8 -31 31 -28 43 17 56 18
5 33 10 35 10 1 1 2 -12 2 -27z m-122 -33 c4 -33 -17 -52 -39 -36 -8 7 -24 25
-34 40 l-18 28 44 -3 c39 -3 44 -6 47 -29z m-270 -9 c1 -14 12 -67 23 -118 12
-51 19 -96 16 -98 -20 -20 -125 53 -152 107 -14 26 -14 33 0 66 19 47 52 74
85 71 18 -2 26 -10 28 -28z m608 -195 c21 -50 18 -64 -26 -148 l-40 -76 2
-135 c3 -125 1 -137 -18 -156 l-20 -21 -35 24 c-19 12 -60 57 -92 100 -32 42
-63 75 -68 72 -5 -4 -9 -21 -9 -40 0 -98 -38 -178 -101 -210 -53 -28 -59 -22
-53 48 3 38 -1 94 -11 147 -24 122 -30 230 -15 274 22 67 130 146 200 146 l32
0 -32 -26 c-63 -53 -75 -117 -40 -198 12 -25 23 -46 26 -46 3 0 2 5 -1 11 -4
5 1 41 10 79 26 106 96 175 202 199 48 10 71 -1 89 -44z m344 -67 c72 -86 81
-111 51 -141 -16 -16 -33 -21 -73 -22 l-53 0 -3 118 c-2 72 1 117 7 117 6 0
37 -33 71 -72z m-1025 -38 c4 -12 30 -48 57 -82 l51 -61 -23 -19 c-30 -25 -67
-33 -99 -22 -23 8 -26 15 -29 66 -5 92 25 174 43 118z m846 -69 c28 -53 -1
-86 -61 -71 -20 5 -25 12 -23 34 3 37 30 78 50 74 9 -2 24 -18 34 -37z m329
-33 c0 -50 -68 -109 -122 -107 -16 1 -13 4 14 11 44 12 88 59 88 94 0 14 4 22
10 19 6 -3 10 -11 10 -17z m-1188 -167 l53 -9 -55 -1 c-39 -1 -65 5 -87 19
-43 26 -42 33 2 14 19 -8 58 -18 87 -23z m933 -26 l50 -14 -45 5 c-25 3 -57 6
-73 8 -15 1 -30 6 -34 9 -11 12 50 7 102 -8z m-830 -64 c-12 -12 -65 -25 -65
-17 0 8 39 24 60 25 9 1 10 -2 5 -8z m949 -90 c3 -4 -6 -6 -19 -3 -14 2 -25 6
-25 8 0 8 39 4 44 -5z m173 -37 c-3 -3 -12 -4 -19 -1 -8 3 -5 6 6 6 11 1 17
-2 13 -5z m-663 -341 c3 -25 1 -43 -4 -43 -6 0 -10 21 -10 47 0 56 6 54 14 -4z
m-614 27 c-9 -5 -40 -18 -70 -30 -54 -20 -55 -20 -30 0 25 20 71 38 100 39 13
0 13 -1 0 -9z m757 -212 c-1 -40 -3 -10 -3 67 0 77 1 110 3 73 2 -37 2 -100 0
-140z m-384 75 c-7 -2 -21 -2 -30 0 -10 3 -4 5 12 5 17 0 24 -2 18 -5z m-53
-7 c0 -2 -12 -12 -27 -21 l-28 -18 19 21 c17 20 36 29 36 18z m1130 -236 c0
-13 -11 -13 -30 0 -12 8 -11 10 8 10 12 0 22 -4 22 -10z"/>
</g>
</svg>
